<mxfile host="app.diagrams.net" modified="2021-03-17T11:06:35.735Z" agent="5.0 (Windows)" etag="meQVp0PK6wpDSqFd01As" version="14.4.8" type="github">
  <diagram id="rC1WBWersCppBYpSQW6r" name="Page-1">
    <mxGraphModel dx="2780" dy="1132" grid="1" gridSize="10" guides="1" tooltips="1" connect="1" arrows="1" fold="1" page="1" pageScale="1" pageWidth="850" pageHeight="1100" math="0" shadow="0">
      <root>
        <mxCell id="0" />
        <mxCell id="1" parent="0" />
        <mxCell id="cW2sHewDqIjpUbxLCJ0e-1" value="" style="shape=mxgraph.bpmn.shape;html=1;verticalLabelPosition=bottom;labelBackgroundColor=#ffffff;verticalAlign=top;align=center;perimeter=ellipsePerimeter;outlineConnect=0;outline=standard;symbol=general;" vertex="1" parent="1">
          <mxGeometry x="70" y="340" width="50" height="50" as="geometry" />
        </mxCell>
        <mxCell id="cW2sHewDqIjpUbxLCJ0e-2" value="Does P&amp;amp;L&amp;nbsp; " style="shape=ext;rounded=1;html=1;whiteSpace=wrap;" vertex="1" parent="1">
          <mxGeometry x="170" y="325" width="120" height="80" as="geometry" />
        </mxCell>
        <mxCell id="cW2sHewDqIjpUbxLCJ0e-3" value="" style="endArrow=block;endFill=1;endSize=6;html=1;" edge="1" parent="1" source="cW2sHewDqIjpUbxLCJ0e-1" target="cW2sHewDqIjpUbxLCJ0e-2">
          <mxGeometry width="100" relative="1" as="geometry">
            <mxPoint x="370" y="570" as="sourcePoint" />
            <mxPoint x="470" y="570" as="targetPoint" />
          </mxGeometry>
        </mxCell>
      </root>
    </mxGraphModel>
  </diagram>
</mxfile>
